<?xml version="1.0" encoding="utf-8"?>
<!-- Generator: Adobe Illustrator 22.1.0, SVG Export Plug-In . SVG Version: 6.00 Build 0)  -->
<svg version="1.1" id="Layer_1" xmlns="http://www.w3.org/2000/svg" xmlns:xlink="http://www.w3.org/1999/xlink" x="0px" y="0px"
	 viewBox="0 0 17.6 17.6" style="enable-background:new 0 0 17.6 17.6;" xml:space="preserve">
<style type="text/css">
	.st0{clip-path:url(#SVGID_2_);fill:#E77E21;}
</style>
<g>
	<defs>
		<rect id="SVGID_1_" width="17.6" height="17.6"/>
	</defs>
	<clipPath id="SVGID_2_">
		<use xlink:href="#SVGID_1_"  style="overflow:visible;"/>
	</clipPath>
	<path class="st0" d="M17.6,8.8c0,4.8-3.9,8.8-8.8,8.8S0,13.6,0,8.8S3.9,0,8.8,0S17.6,3.9,17.6,8.8 M12.1,10.1
		c-0.2,1.6-1.6,2.9-3.3,2.9c-1.7,0-3.1-1.3-3.3-2.9H3.7c0.2,2.6,2.4,4.7,5.1,4.7c2.7,0,4.9-2.1,5.1-4.7H12.1z M13.3,5.3H9.2v2.3h4.2
		V5.3z M4.2,7.6h3.9V5.3H4.2V7.6z"/>
</g>
</svg>
