<?xml version="1.0" encoding="utf-8"?>
<!-- Generator: Adobe Illustrator 22.1.0, SVG Export Plug-In . SVG Version: 6.00 Build 0)  -->
<svg version="1.1" id="Layer_1" xmlns="http://www.w3.org/2000/svg" xmlns:xlink="http://www.w3.org/1999/xlink" x="0px" y="0px"
	 viewBox="0 0 320 24" style="enable-background:new 0 0 320 24;" xml:space="preserve">
<style type="text/css">
	.st0{fill:#FFFFFF;}
</style>
<path class="st0" d="M59.4,11L54.5,0.5h-6.3l5,10.5H59.4z M36.5,11l1.9-4.9l2.1,4.9h5.9L41.6,0.5h-6.7L30.7,11H36.5z M17,0.5h5.8V11
	H17V0.5z M0,0.5h5.8V11H0V0.5z M112,11c-3.5-2.1-8.2-2.5-8.2-4.7c0-1.2,1.3-1.9,3.4-1.9c2,0,4,0.6,7.3,2.1V2
	c-2.4-1.2-5.1-1.8-7.8-1.8c-5.4,0-8.8,2.6-8.8,6.6c0,1.8,0.5,3.1,1.4,4.2H112z M67.9,11l4.8-10.5h-6.2L61.8,11H67.9z M80.8,11
	l1.9-4.9l2.1,4.9h5.9L85.9,0.5h-6.7L75,11H80.8z M73.8,13.8l-4,9.8H76l3.8-9.8H73.8z M85.9,13.8l4.1,9.8h6.2l-4.4-9.8
	C91.8,13.8,85.9,13.8,85.9,13.8z M54.6,13.8l4.9,10.1H62l4.6-10.1C66.6,13.8,54.6,13.8,54.6,13.8z M103.5,13.8
	c3,1.2,6.1,1.8,6.1,3.7c0,1.4-1.2,2.1-3.4,2.1c-2.6,0-4.6-0.8-7.9-3v5c2.3,1.2,4.3,2.2,8.4,2.2c5.2,0,8.9-2.6,8.9-7
	c0-1.2-0.3-2.3-0.7-3.1C114.8,13.8,103.5,13.8,103.5,13.8z M17,13.8h5.8v9.8H17V13.8z M0,13.8h5.8v9.8H0V13.8z M29.5,13.8l-4,9.8
	h6.1l3.8-9.8C35.4,13.8,29.5,13.8,29.5,13.8z M41.6,13.8l4.1,9.8h6.2l-4.4-9.8C47.5,13.8,41.6,13.8,41.6,13.8z M125.6,0.5v23.1h15.7
	v-2.4h-13.1V0.5H125.6z M155.2,0.5L147.4,12l-7.8-11.6h-3.2l9.7,14v9.2h2.6v-9.2l9.7-13.9H155.2z M177.2,0.5V19L162.6,0.5h-2.5v23.1
	h2.6v-19l15,19h2.1V0.5H177.2L177.2,0.5z M199.2,0.5l-7.1,9.5L185,0.5h-3.1l8.6,11.3l-8.9,11.8h3l7.4-9.9l7.4,9.9h3.1l-8.9-11.8
	l8.6-11.3H199.2z M305.2,13V2.8h5.9c3.8,0,6.3,1.7,6.3,5v0.1c0,3-2.5,5.1-6.4,5.1H305.2z M302.6,23.6h2.6v-8.2h5.7
	c5,0,9.1-2.6,9.1-7.6c0-4.6-3.5-7.4-8.7-7.4h-8.7C302.6,0.4,302.6,23.6,302.6,23.6z M289.2,24c5.8,0,9.7-3.5,9.7-10.3V0.4h-2.6v13.5
	c0,5.1-2.7,7.7-7,7.7c-4.4,0-7.1-2.8-7.1-7.8V0.4h-2.6v13.5C279.5,20.5,283.4,24,289.2,24 M265.3,21.6c-5.3,0-9.2-4.3-9.2-9.6v-0.1
	c0-5.3,3.8-9.5,9.1-9.5s9.2,4.3,9.2,9.6v0.1C274.4,17.3,270.6,21.6,265.3,21.6 M265.2,24c7.1,0,11.9-5.6,11.9-12v-0.1
	c0-6.4-4.8-11.9-11.8-11.9s-11.9,5.6-11.9,12v0.1C253.4,18.5,258.2,24,265.2,24 M236.3,12.2V2.8h7.2c3.8,0,6,1.7,6,4.6v0.1
	c0,3-2.5,4.8-6,4.8C243.5,12.3,236.3,12.2,236.3,12.2z M233.7,23.6h2.6v-9h6.7l6.8,9h3.2l-7.2-9.5c3.7-0.7,6.3-2.9,6.3-6.8
	c0-1.8-0.7-3.4-1.8-4.6c-1.5-1.5-3.8-2.3-6.6-2.3h-10V23.6z M221,24c3.9,0,7.2-1.6,9.3-3.5v-9.2h-9.6v2.4h7.1v5.8
	c-1.6,1.3-4.1,2.3-6.7,2.3c-5.7,0-9.2-4.1-9.2-9.6v-0.1c0-5.2,3.7-9.5,8.9-9.5c3.3,0,5.3,1.1,7.1,2.7l1.7-2c-2.3-2-4.8-3.1-8.7-3.1
	c-7,0-11.7,5.6-11.7,12v0.1C209.2,18.7,213.7,24,221,24"/>
</svg>
