<?xml version="1.0" encoding="utf-8"?>
<!-- Generator: Adobe Illustrator 22.1.0, SVG Export Plug-In . SVG Version: 6.00 Build 0)  -->
<svg version="1.1" id="Layer_1" xmlns="http://www.w3.org/2000/svg" xmlns:xlink="http://www.w3.org/1999/xlink" x="0px" y="0px"
	 viewBox="0 0 17.6 17.6" style="enable-background:new 0 0 17.6 17.6;" xml:space="preserve">
<style type="text/css">
	.st0{clip-path:url(#SVGID_2_);fill:#D0122D;}
</style>
<g>
	<defs>
		<rect id="SVGID_1_" width="17.6" height="17.6"/>
	</defs>
	<clipPath id="SVGID_2_">
		<use xlink:href="#SVGID_1_"  style="overflow:visible;"/>
	</clipPath>
	<path class="st0" d="M17.6,8.8c0,4.8-3.9,8.8-8.8,8.8C3.9,17.6,0,13.6,0,8.8C0,3.9,3.9,0,8.8,0C13.6,0,17.6,3.9,17.6,8.8 M13.3,5.5
		H9.2v2.3h4.2V5.5z M4.2,7.8h3.9V5.5H4.2V7.8z M13.9,9.4H3.7l0,0.4C3.7,12.7,6,15,8.8,15c2.8,0,5.1-2.3,5.1-5.1L13.9,9.4z
		 M11.8,11.1c-0.5,1.2-1.7,2-3.1,2c-1.4,0-2.6-0.8-3.1-2H11.8z"/>
</g>
</svg>
