<?xml version="1.0" encoding="utf-8"?>
<!-- Generator: Adobe Illustrator 22.1.0, SVG Export Plug-In . SVG Version: 6.00 Build 0)  -->
<svg version="1.1" id="Layer_1" xmlns="http://www.w3.org/2000/svg" xmlns:xlink="http://www.w3.org/1999/xlink" x="0px" y="0px"
	 viewBox="0 0 17.6 17.6" style="enable-background:new 0 0 17.6 17.6;" xml:space="preserve">
<style type="text/css">
	.st0{clip-path:url(#SVGID_1_);fill:#3996D3;}
</style>
<g>
	<defs>
		<rect id="SVGID_3_" width="17.6" height="17.6"/>
	</defs>
	<clipPath id="SVGID_1_">
		<use xlink:href="#SVGID_3_"  style="overflow:visible;"/>
	</clipPath>
	<path class="st0" d="M17.6,8.8c0,4.8-3.9,8.8-8.8,8.8S0,13.6,0,8.8C0,3.9,3.9,0,8.8,0S17.6,3.9,17.6,8.8 M13.3,5.3H9.2v2.3h4.2V5.3
		z M4.2,7.6h3.9V5.3H4.2V7.6z M12.7,11.5c-0.9-1.1-2.4-1.9-3.9-1.9c-1.6,0-3,0.7-3.9,1.9l1.3,1.3c0.6-0.8,1.6-1.3,2.7-1.3
		s2.1,0.5,2.7,1.3L12.7,11.5z"/>
</g>
</svg>
